<?xml version="1.0" encoding="UTF-8"?>
<svg id="Layer_2" data-name="Layer 2" xmlns="http://www.w3.org/2000/svg" viewBox="0 0 661.03 164.86">
  <defs>
    <style>
      .cls-1 {
        fill: #0365f9;
      }

      .cls-2 {
        fill: #0365fb;
      }

      .cls-3 {
        fill: #0365fa;
      }

      .cls-4 {
        fill: #0468fa;
      }

      .cls-5 {
        fill: #fca43a;
      }

      .cls-6 {
        fill: #0368fb;
      }

      .cls-7 {
        fill: #0368fa;
      }

      .cls-8 {
        fill: #0367fb;
      }

      .cls-9 {
        fill: #0467f9;
      }

      .cls-10 {
        fill: #fca83e;
      }

      .cls-11 {
        fill: #fca840;
      }
    </style>
  </defs>
  <g id="Layer_1-2" data-name="Layer 1">
    <g>
      <path class="cls-8" d="M252.58,13.41c.04-5.22-1.4-6.46-6.34-6.19-7.6,.42-7.62,.11-7.63,7.76V54.14c-20.87-16.03-41.92-16.2-57.02-.88-14.99,15.2-16.61,38.04-3.72,54.59,7.5,9.62,17.6,14.6,29.69,15.23,12.01,.63,22.3-3.62,30.79-12.97,.75,11.48,.76,11.19,9.37,11.48,4.39,.15,4.76-1.7,4.75-5.25-.09-34.31-.17-68.62,.11-102.93Zm-42.67,96.93c-14.88-.04-27.08-12.43-27.13-27.55-.04-15.73,12.16-28.05,27.74-28.01,15.74,.04,28.03,12.25,27.96,27.78-.06,15.68-12.55,27.82-28.57,27.78Z"/>
      <path class="cls-9" d="M566.8,55.23c-16.11-17.19-37.32-17.89-58.29-1.46,0-12.7,.01-24.94,0-37.18-.01-9.38-.03-9.2-9.47-9.33-3.59-.04-4.44,1.09-4.41,4.52,.13,18.64,.01,37.28,.01,55.93-.01,16.48,.01,32.96,.08,49.44,.01,1.75-.97,3.99,2.37,4.41,9.42,1.19,10.9,.12,11.49-9.12,.01-.25,.28-.49,.43-.74,21.12,15.66,42.33,14.86,57.71-2.18,13.63-15.09,13.66-39.8,.08-54.29Zm-31.15,55.15c-15.52-.05-27.34-12.29-27.32-28.28,.01-15.58,11.91-27.36,27.58-27.29,15.57,.06,27.55,12.06,27.48,27.53-.08,15.64-12.41,28.1-27.74,28.04Z"/>
      <path class="cls-7" d="M154.53,62.43c.03-3.11-.81-4.87-3.77-5.98-4.04-1.53-8.09-3.22-11.5-5.93-13.92-11.04-36.32-11.66-50.8-.69-13.48,10.22-19.1,24.08-15.97,40.88,2.98,16.04,12.58,26.51,28.33,30.86,14.91,4.13,27.94,.42,39.26-11.22,1.04,11.25,1.04,11.1,10.27,11.2,3.28,.04,4.23-.86,4.2-4.17-.16-18.32-.17-36.63-.02-54.95Zm-42.3,47.9c-14.96-.02-27-12.32-26.94-27.54,.05-15.77,12.19-28.03,27.7-27.99,15.55,.04,27.59,12.06,27.52,27.47-.07,15.7-12.55,28.09-28.28,28.06Z"/>
      <path class="cls-6" d="M362.33,87.89h-31.46c2.47,20.45,25.02,29.23,42.21,17.11,1.7-1.2,3.12-4.11,5.16-3.3,3.18,1.26,6.08,3.45,8.75,5.67,1.87,1.56-.5,2.59-1.33,3.5-17.77,19.46-52.81,15.19-64.79-8.35-12.43-24.43-.19-53.61,26.98-59.79,18.57-4.22,38.62,6.98,44.06,24.24,1.13,3.58,1.17,5.87-3.6,5.21-1.47-.2-3-.16-4.49,0-2.58,.25-4.01-.47-5.17-3.15-4.2-9.73-13.33-14.95-24.06-14.29-11,.67-19.86,7.55-23.23,17.54-1.15,3.43,.32,3.58,2.91,3.55,11.98-.13,23.97-.67,35.95,.15,.4,1.44-.04,2.79-1.13,3.59-3,2.21-4.87,5.27-6.77,8.33Z"/>
      <path class="cls-4" d="M619.03,99.5c8.18-16.49,16.34-32.43,23.97-48.61,2.17-4.61,4.74-6.6,9.75-5.86,2.42,.36,4.95,.06,8.29,.06-3.7,7.54-7.07,14.51-10.54,21.44-15.4,30.79-30.93,61.51-46.12,92.4-2.13,4.34-4.46,6.02-9.32,5.92-9.16-.18-9.11,.19-4.85-8.17,6.42-12.59,12.68-25.25,19.18-37.8,1.44-2.78,1.5-4.99,.08-7.84-10.17-20.36-20.1-40.83-30.27-61.19-1.78-3.56-1.96-4.45,2.74-4.96,8.24-.91,12.28,2.08,15.44,9.72,5.77,13.95,12.86,27.36,19.42,40.99,.56,1.17,1.3,2.26,2.24,3.89Z"/>
      <path class="cls-2" d="M49.15,13.7c-.08,14.65-.2,29.3-.23,43.96-.05,19.66-.1,39.32,.03,58.98,.02,3.45-.5,4.96-4.54,4.89-10.5-.18-10.49,.05-10.5-10.33,0-30.66-.1-61.31,.06-91.97,.02-4.03-.77-5.5-5.11-5.31-8.48,.37-16.99,.05-25.49,.17-2.67,.04-3.81-.23-3.23-3.54C2,.06,1.82,.03,12.38,.06c14.99,.05,29.99,.11,44.98,.16,.87,1.51-.46,2.22-1.29,2.7-4.18,2.43-6.19,6.18-6.92,10.78Z"/>
      <path class="cls-3" d="M427.23,76.07c11.81-.15,23.63-.53,35.44-.33,4.91,.08,4.56-1.88,3.41-5.27-5.73-16.91-30.04-21.14-42.46-7.39-1.06,1.18-1.49,3.95-4.01,2.73-3.12-1.51-6.26-3.14-9-5.23-1.01-.78,.71-2.33,1.48-3.33,9.42-12.24,22.08-17.02,37.01-14.52,15.72,2.64,25.72,12.38,30.38,27.58,1.38,4.52,1.27,9.19,1.25,13.86-.02,3-1.3,3.98-4.28,3.95-14.65-.14-29.3-.11-43.95-.14-1.09-4.26-3.52-7.94-5.27-11.92Z"/>
      <path class="cls-6" d="M282.7,53.32c6.57-8.21,14.99-11.29,25.15-10.42,3.55,.31,5.29,1.4,4.64,5.12-.06,.32,0,.66,0,1q.08,6.71-6.45,6.31c-13.63-.85-23.54,8.05-23.77,21.74-.22,13.16-.2,26.32,0,39.48,.06,3.93-1.19,5.06-5.1,4.99-9.32-.17-9.15,.03-9.08-9.28,.15-20.65,.28-41.31,.02-61.96-.06-4.63,1.38-5.55,5.6-5.36,7.65,.34,7.66,.11,8.99,8.39Z"/>
      <path class="cls-11" d="M427.23,76.07c3.7,3.11,7.04,6.39,5.27,11.92-23.39-.03-46.78-.06-70.17-.09-.3-3.4,.75-5.99,4.01-7.62,1.75-.88,2.97-2.52,3.89-4.31,19,.03,38,.07,57,.1Z"/>
      <path class="cls-1" d="M443.25,123.12c-12.27-.47-22.65-4.39-30.63-13.8-1.88-2.22-2.58-3.77,.81-4.98,1.08-.39,2.13-.98,3.07-1.65,2.94-2.1,5.08-1.96,8.05,.75,10.51,9.59,25.34,9.55,36.5,.55,1.15-.93,1.98-3.29,3.98-2.01,3.05,1.94,6.65,3.25,8.83,6.28,.74,1.04-.98,1.89-1.72,2.68-7.89,8.4-17.98,11.54-28.88,12.18Z"/>
      <path class="cls-10" d="M616.48,152.89c5.35-10.68,10.49-20.89,15.6-31.13,2.3-4.61,4.74-9.16,6.71-13.91,1.52-3.65,3.38-4.4,7.21-3.13,7.09,2.36,7.28,2.13,4.01,8.73-6.06,12.21-12.4,24.28-18.3,36.56-2.02,4.19-4.17,6.44-9,4.4-1.77-.75-3.77-.94-6.22-1.52Z"/>
      <path class="cls-5" d="M49.15,13.7c-2.14-7.46,4.12-9.81,8.21-13.47,9.99-.05,19.99,.05,29.98-.22,3.52-.1,4.14,1.35,4.09,4.4-.2,11.71,1.32,9.48-9.34,9.58-10.98,.1-21.96-.17-32.94-.28Z"/>
    </g>
  </g>
</svg>